<svg width="825" height="216" viewBox="0 0 825 216" fill="none" xmlns="http://www.w3.org/2000/svg">
<path opacity="0.5" d="M152 56H70.5C66.0817 56 62.5 59.5817 62.5 64V145.5C62.5 149.918 66.0817 153.5 70.5 153.5H152C156.418 153.5 160 149.918 160 145.5V64C160 59.5817 156.418 56 152 56Z" fill="#77D4FC"/>
<path d="M145.5 62.5H64C59.5817 62.5 56 66.0817 56 70.5V152C56 156.418 59.5817 160 64 160H145.5C149.918 160 153.5 156.418 153.5 152V70.5C153.5 66.0817 149.918 62.5 145.5 62.5Z" fill="#77D4FC"/>
<g clip-path="url(#clip0_6_12)">
<g clip-path="url(#clip1_6_12)">
<path d="M127.5 105.14H107.175L117.768 74.2L82.65 117.361H102.977L92.3831 148.3L127.5 105.14Z" fill="white"/>
</g>
</g>
<path d="M192 85.5094C192 84.8776 192.295 84.5618 192.884 84.5618H221.756C222.261 84.5618 222.514 84.8355 222.514 85.383L222.451 89.3631C222.451 89.9949 222.135 90.3108 221.503 90.3108H200.592C199.96 90.3108 199.644 90.5845 199.644 91.132V104.904C199.644 105.41 199.918 105.662 200.466 105.662H216.323C216.828 105.662 217.081 105.915 217.081 106.421V110.59C217.081 111.053 216.828 111.285 216.323 111.285H200.402C199.897 111.285 199.644 111.538 199.644 112.043V130.427C199.644 131.101 199.265 131.438 198.507 131.438H193.074C192.653 131.438 192.371 131.362 192.227 131.211C192.076 131.068 192 130.806 192 130.427V85.5094ZM230.6 85.5094C230.6 84.8776 230.895 84.5618 231.485 84.5618H237.423C237.971 84.5618 238.245 84.8776 238.245 85.5094V124.994C238.245 125.458 238.455 125.689 238.876 125.689H260.23C260.82 125.689 261.114 125.942 261.114 126.447V130.617C261.114 130.87 261.039 131.068 260.887 131.211C260.744 131.362 260.525 131.438 260.23 131.438H231.674C231.253 131.438 230.967 131.354 230.815 131.186C230.672 131.017 230.6 130.764 230.6 130.427V85.5094ZM265.789 131.438C265.495 131.438 265.284 131.312 265.158 131.059C265.031 130.806 265.031 130.491 265.158 130.112L281.267 85.5726C281.394 85.1935 281.562 84.9282 281.773 84.7765C281.983 84.6333 282.278 84.5618 282.657 84.5618H289.038C289.838 84.5618 290.365 84.9197 290.617 85.6357L306.588 130.175C306.723 130.47 306.723 130.752 306.588 131.021C306.47 131.299 306.243 131.438 305.906 131.438H299.955C299.416 131.438 299.062 131.186 298.894 130.68L294.85 119.435C294.808 119.224 294.732 119.077 294.623 118.993C294.522 118.908 294.345 118.866 294.092 118.866H276.58C276.209 118.866 275.961 119.035 275.834 119.372L271.728 130.806C271.644 131.017 271.526 131.173 271.374 131.274C271.231 131.383 270.991 131.438 270.654 131.438H265.789ZM278.361 112.928H292.134C292.681 112.928 292.85 112.633 292.639 112.043L285.816 93.0905C285.648 92.7535 285.488 92.5851 285.336 92.5851C285.184 92.5851 285.05 92.7746 284.932 93.1537L277.919 112.106C277.709 112.654 277.856 112.928 278.361 112.928ZM339.566 94.0381C338.471 92.8167 337.123 91.7638 335.523 90.8793C333.922 89.9949 331.838 89.5526 329.268 89.5526C326.278 89.5526 323.953 90.1718 322.294 91.41C320.626 92.6567 319.792 94.3751 319.792 96.5652C319.792 97.1548 319.94 97.8497 320.234 98.65C320.529 99.4502 321.131 100.217 322.041 100.95C322.942 101.691 324.257 102.377 325.983 103.009L335.46 105.978C339.292 107.158 342.043 108.83 343.71 110.995C345.37 113.168 346.2 115.707 346.2 118.614C346.2 121.393 345.496 123.794 344.09 125.816C342.674 127.837 340.674 129.383 338.088 130.453C335.493 131.531 332.406 132.07 328.826 132.07C326.173 132.07 323.722 131.763 321.473 131.148C319.215 130.541 317.215 129.636 315.471 128.431C313.719 127.235 312.253 125.773 311.074 124.047C310.905 123.752 310.842 123.478 310.884 123.225C310.926 122.973 311.116 122.72 311.453 122.467L314.549 120.319C315.012 120.024 315.37 119.898 315.623 119.94C315.875 119.982 316.107 120.13 316.317 120.382C317.37 121.73 318.436 122.867 319.514 123.794C320.584 124.721 321.826 125.407 323.242 125.853C324.648 126.292 326.362 126.511 328.384 126.511C331.543 126.511 334.082 125.95 336.003 124.83C337.915 123.718 338.871 121.941 338.871 119.498C338.871 118.529 338.682 117.653 338.303 116.87C337.924 116.095 337.271 115.379 336.344 114.722C335.418 114.073 334.07 113.433 332.301 112.801L322.761 109.706C320.361 108.906 318.415 107.874 316.924 106.61C315.425 105.347 314.317 103.915 313.601 102.314C312.885 100.714 312.527 99.0711 312.527 97.3864C312.527 94.6909 313.222 92.3324 314.612 90.3108C316.002 88.2891 317.939 86.7224 320.424 85.6105C322.909 84.4901 325.815 83.93 329.142 83.93C331.374 83.93 333.43 84.1911 335.308 84.7134C337.178 85.244 338.892 85.9811 340.451 86.9245C342.009 87.8764 343.336 89.0051 344.431 90.3108C344.599 90.5213 344.717 90.7319 344.784 90.9425C344.843 91.1531 344.726 91.3847 344.431 91.6374L340.83 94.4172C340.577 94.5857 340.379 94.6362 340.236 94.5688C340.084 94.5098 339.861 94.3329 339.566 94.0381ZM382.147 110.085H363.131C362.71 110.085 362.499 110.295 362.499 110.717V130.364C362.499 131.08 362.099 131.438 361.299 131.438H355.929C355.508 131.438 355.225 131.354 355.082 131.186C354.931 131.017 354.855 130.764 354.855 130.427V85.5094C354.855 84.8776 355.15 84.5618 355.739 84.5618H361.678C362.225 84.5618 362.499 84.8776 362.499 85.5094V103.262C362.499 103.851 362.773 104.146 363.32 104.146H382.084C382.589 104.146 382.842 103.872 382.842 103.325V85.4462C382.842 84.8566 383.094 84.5618 383.6 84.5618H389.665C390.212 84.5618 390.486 84.8776 390.486 85.5094V130.427C390.486 130.764 390.414 131.017 390.271 131.186C390.119 131.354 389.833 131.438 389.412 131.438H384.105C383.263 131.438 382.842 131.08 382.842 130.364V110.78C382.842 110.316 382.61 110.085 382.147 110.085ZM412.787 131.438C412.492 131.438 412.282 131.312 412.155 131.059C412.029 130.806 412.029 130.491 412.155 130.112L428.265 85.5726C428.391 85.1935 428.56 84.9282 428.77 84.7765C428.981 84.6333 429.276 84.5618 429.655 84.5618H436.036C436.836 84.5618 437.362 84.9197 437.615 85.6357L453.599 130.175C453.725 130.47 453.725 130.752 453.599 131.021C453.472 131.299 453.241 131.438 452.904 131.438H446.965C446.418 131.438 446.06 131.186 445.891 130.68L441.848 119.435C441.806 119.224 441.73 119.077 441.62 118.993C441.519 118.908 441.342 118.866 441.09 118.866H423.59C423.211 118.866 422.958 119.035 422.832 119.372L418.725 130.806C418.641 131.017 418.523 131.173 418.372 131.274C418.229 131.383 417.988 131.438 417.652 131.438H412.787ZM425.359 112.928H439.131C439.679 112.928 439.847 112.633 439.637 112.043L432.814 93.0905C432.645 92.7535 432.485 92.5851 432.334 92.5851C432.19 92.5851 432.056 92.7746 431.929 93.1537L424.917 112.106C424.706 112.654 424.854 112.928 425.359 112.928ZM493.008 84.5618H497.809C498.272 84.5618 498.504 84.8355 498.504 85.383V130.617C498.504 130.87 498.42 131.068 498.251 131.211C498.083 131.362 497.851 131.438 497.556 131.438H493.45C493.155 131.438 492.902 131.405 492.692 131.337C492.481 131.278 492.271 131.101 492.06 130.806L469.001 97.7023C468.79 97.4075 468.622 97.2812 468.495 97.3233C468.369 97.3654 468.306 97.5128 468.306 97.7655V130.554C468.306 131.143 467.969 131.438 467.295 131.438H462.81C462.136 131.438 461.799 131.143 461.799 130.554V85.5094C461.799 84.8776 462.115 84.5618 462.746 84.5618H467.674C468.011 84.5618 468.276 84.6039 468.47 84.6881C468.655 84.7723 468.853 84.9829 469.064 85.3199L491.176 117.35C491.428 117.687 491.652 117.822 491.845 117.754C492.031 117.695 492.123 117.518 492.123 117.224V85.4462C492.123 84.8566 492.418 84.5618 493.008 84.5618ZM507.412 131.438C507.117 131.438 506.906 131.312 506.78 131.059C506.654 130.806 506.654 130.491 506.78 130.112L522.89 85.5726C523.016 85.1935 523.185 84.9282 523.395 84.7765C523.606 84.6333 523.901 84.5618 524.28 84.5618H530.66C531.461 84.5618 531.987 84.9197 532.24 85.6357L548.223 130.175C548.35 130.47 548.35 130.752 548.223 131.021C548.097 131.299 547.865 131.438 547.528 131.438H541.59C541.042 131.438 540.684 131.186 540.516 130.68L536.473 119.435C536.431 119.224 536.359 119.077 536.258 118.993C536.148 118.908 535.967 118.866 535.715 118.866H518.215C517.836 118.866 517.583 119.035 517.457 119.372L513.35 130.806C513.266 131.017 513.152 131.173 513.009 131.274C512.858 131.383 512.613 131.438 512.276 131.438H507.412ZM519.984 112.928H533.756C534.304 112.928 534.472 112.633 534.261 112.043L527.439 93.0905C527.27 92.7535 527.11 92.5851 526.958 92.5851C526.815 92.5851 526.68 92.7746 526.554 93.1537L519.542 112.106C519.331 112.654 519.478 112.928 519.984 112.928ZM556.436 85.5094C556.436 84.8776 556.731 84.5618 557.321 84.5618H563.259C563.807 84.5618 564.081 84.8776 564.081 85.5094V124.994C564.081 125.458 564.291 125.689 564.712 125.689H586.066C586.655 125.689 586.95 125.942 586.95 126.447V130.617C586.95 130.87 586.874 131.068 586.723 131.211C586.58 131.362 586.361 131.438 586.066 131.438H557.51C557.089 131.438 556.803 131.354 556.651 131.186C556.508 131.017 556.436 130.764 556.436 130.427V85.5094ZM622.265 84.5618C622.645 84.5618 622.885 84.6544 622.986 84.8397C623.095 85.0335 623.066 85.2777 622.897 85.5726L607.925 110.464C607.714 110.717 607.588 110.999 607.545 111.31C607.503 111.63 607.482 112.17 607.482 112.928V130.175C607.482 131.017 607.019 131.438 606.092 131.438H600.975C600.554 131.438 600.268 131.354 600.116 131.186C599.973 131.017 599.901 130.743 599.901 130.364V112.991C599.901 112.528 599.846 112.17 599.737 111.917C599.636 111.664 599.501 111.39 599.333 111.096L584.17 85.7621C583.96 85.4252 583.918 85.1388 584.044 84.9029C584.17 84.6755 584.465 84.5618 584.929 84.5618H590.993C591.457 84.5618 591.773 84.6249 591.941 84.7513C592.11 84.8776 592.299 85.1093 592.51 85.4462L603.502 104.462C603.755 104.925 603.987 105.157 604.197 105.157C604.408 105.157 604.618 104.968 604.829 104.588L615.758 85.4462C615.969 85.0672 616.158 84.8229 616.327 84.7134C616.495 84.6123 616.79 84.5618 617.211 84.5618H622.265ZM627.875 89.4895V85.4462C627.875 85.1514 627.951 84.9282 628.103 84.7765C628.246 84.6333 628.486 84.5618 628.823 84.5618H663.507C663.844 84.5618 664.075 84.6333 664.202 84.7765C664.328 84.9282 664.391 85.1514 664.391 85.4462V89.4895C664.391 89.9949 664.096 90.2476 663.507 90.2476H650.998C650.535 90.2476 650.303 90.4371 650.303 90.8162V130.491C650.303 131.122 650.029 131.438 649.482 131.438H643.543C642.996 131.438 642.722 131.143 642.722 130.554V90.9425C642.722 90.4792 642.49 90.2476 642.027 90.2476H628.76C628.17 90.2476 627.875 89.9949 627.875 89.4895ZM673.299 84.5618H679.237C679.785 84.5618 680.059 84.8776 680.059 85.5094V130.238C680.059 130.701 679.966 131.017 679.781 131.186C679.587 131.354 679.237 131.438 678.732 131.438H673.552C673.088 131.438 672.785 131.362 672.642 131.211C672.49 131.068 672.414 130.806 672.414 130.427V85.5094C672.414 84.8776 672.709 84.5618 673.299 84.5618ZM709.625 83.93C711.857 83.93 713.972 84.2796 715.968 84.9787C717.973 85.6694 719.775 86.6255 721.376 87.8469C722.976 89.0683 724.29 90.4666 725.318 92.0418C726.354 93.6254 727.019 95.3438 727.314 97.1969C727.399 97.6602 727.399 97.9635 727.314 98.1067C727.23 98.2583 727.04 98.3551 726.746 98.3973L720.87 98.7763C720.618 98.8184 720.449 98.7763 720.365 98.65C720.281 98.5236 720.196 98.3341 720.112 98.0814C719.565 95.5543 718.406 93.4906 716.638 91.8901C714.869 90.2897 712.615 89.4895 709.878 89.4895C705.877 89.4895 702.789 91.0057 700.616 94.0381C698.451 97.0706 697.369 101.703 697.369 107.937C697.369 114.086 698.43 118.677 700.553 121.709C702.684 124.742 705.877 126.258 710.13 126.258C712.952 126.258 715.319 125.571 717.231 124.198C719.152 122.834 720.723 120.593 721.944 117.476C722.071 117.182 722.387 117.076 722.892 117.16L727.377 118.234C727.504 118.277 727.63 118.361 727.757 118.487C727.883 118.614 727.904 118.887 727.82 119.308C727.525 120.404 727.041 121.541 726.367 122.72C725.693 123.899 724.85 125.049 723.84 126.169C722.829 127.281 721.628 128.279 720.239 129.164C718.849 130.048 717.278 130.752 715.526 131.274C713.782 131.805 711.878 132.07 709.815 132.07C705.561 132.07 701.905 131.08 698.847 129.101C695.798 127.121 693.452 124.32 691.809 120.698C690.167 117.076 689.346 112.801 689.346 107.874C689.346 102.904 690.167 98.6289 691.809 95.0489C693.452 91.469 695.79 88.7187 698.822 86.7982C701.854 84.886 705.455 83.93 709.625 83.93ZM762.124 94.0381C761.029 92.8167 759.681 91.7638 758.081 90.8793C756.48 89.9949 754.396 89.5526 751.826 89.5526C748.836 89.5526 746.507 90.1718 744.839 91.41C743.18 92.6567 742.35 94.3751 742.35 96.5652C742.35 97.1548 742.498 97.8497 742.792 98.65C743.087 99.4502 743.685 100.217 744.587 100.95C745.496 101.691 746.815 102.377 748.541 103.009L758.018 105.978C761.85 107.158 764.596 108.83 766.256 110.995C767.924 113.168 768.758 115.707 768.758 118.614C768.758 121.393 768.05 123.794 766.635 125.816C765.228 127.837 763.228 129.383 760.633 130.453C758.047 131.531 754.964 132.07 751.384 132.07C748.731 132.07 746.275 131.763 744.018 131.148C741.769 130.541 739.768 129.636 738.016 128.431C736.273 127.235 734.811 125.773 733.632 124.047C733.463 123.752 733.4 123.478 733.442 123.225C733.484 122.973 733.674 122.72 734.011 122.467L737.107 120.319C737.57 120.024 737.928 119.898 738.181 119.94C738.433 119.982 738.665 120.13 738.875 120.382C739.928 121.73 740.99 122.867 742.059 123.794C743.138 124.721 744.38 125.407 745.787 125.853C747.202 126.292 748.92 126.511 750.942 126.511C754.101 126.511 756.636 125.95 758.548 124.83C760.469 123.718 761.429 121.941 761.429 119.498C761.429 118.529 761.24 117.653 760.861 116.87C760.482 116.095 759.829 115.379 758.902 114.722C757.976 114.073 756.628 113.433 754.859 112.801L745.319 109.706C742.919 108.906 740.969 107.874 739.469 106.61C737.978 105.347 736.875 103.915 736.159 102.314C735.443 100.714 735.085 99.0711 735.085 97.3864C735.085 94.6909 735.78 92.3324 737.17 90.3108C738.56 88.2891 740.497 86.7224 742.982 85.6105C745.467 84.4901 748.373 83.93 751.7 83.93C753.932 83.93 755.983 84.1911 757.853 84.7134C759.732 85.244 761.45 85.9811 763.009 86.9245C764.567 87.8764 765.894 89.0051 766.989 90.3108C767.157 90.5213 767.271 90.7319 767.33 90.9425C767.397 91.1531 767.284 91.3847 766.989 91.6374L763.388 94.4172C763.135 94.5857 762.933 94.6362 762.781 94.5688C762.638 94.5098 762.419 94.3329 762.124 94.0381Z" fill="#77D4FC"/>
<defs>
<clipPath id="clip0_6_12">
<rect width="44.85" height="74.1" fill="white" transform="translate(82.65 74.2)"/>
</clipPath>
<clipPath id="clip1_6_12">
<rect width="44.85" height="74.1" fill="white" transform="translate(82.65 74.2)"/>
</clipPath>
</defs>
</svg>
